{
    "asset" : {
        "generator" : "Khronos glTF Blender I/O v3.2.43",
        "version" : "2.0"
    },
    "extensionsUsed" : [
        "KHR_texture_transform"
    ],
    "extensionsRequired" : [
        "KHR_texture_transform"
    ],
    "scene" : 0,
    "scenes" : [
        {
            "name" : "Scene",
            "nodes" : [
                0,
                1,
                2
            ]
        }
    ],
    "nodes" : [
        {
            "mesh" : 0,
            "name" : "Cube.001",
            "rotation" : [
                0.7071068286895752,
                0,
                0,
                0.7071067094802856
            ]
        },
        {
            "mesh" : 1,
            "name" : "Cube.002",
            "rotation" : [
                0.7071068286895752,
                0,
                0,
                0.7071067094802856
            ]
        },
        {
            "mesh" : 2,
            "name" : "Sphere.001",
            "rotation" : [
                0.5683826208114624,
                -0.10765480250120163,
                -0.10859071463346481,
                0.8084303736686707
            ],
            "scale" : [
                0.839724600315094,
                0.8397245407104492,
                0.8397244811058044
            ]
        }
    ],
    "animations" : [
        {
            "channels" : [
                {
                    "sampler" : 0,
                    "target" : {
                        "node" : 2,
                        "path" : "translation"
                    }
                },
                {
                    "sampler" : 1,
                    "target" : {
                        "node" : 2,
                        "path" : "rotation"
                    }
                }
            ],
            "name" : "Sphere.001Action",
            "samplers" : [
                {
                    "input" : 12,
                    "interpolation" : "LINEAR",
                    "output" : 13
                },
                {
                    "input" : 12,
                    "interpolation" : "LINEAR",
                    "output" : 14
                }
            ]
        }
    ],
    "materials" : [
        {
            "doubleSided" : true,
            "name" : "Material.002",
            "normalTexture" : {
                "index" : 0
            },
            "pbrMetallicRoughness" : {
                "baseColorTexture" : {
                    "index" : 1
                },
                "metallicFactor" : 0,
                "roughnessFactor" : 0.5
            }
        },
        {
            "doubleSided" : true,
            "name" : "Material",
            "normalTexture" : {
                "extensions" : {
                    "KHR_texture_transform" : {
                        "offset" : [
                            0,
                            4
                        ],
                        "scale" : [
                            -3,
                            -3
                        ]
                    }
                },
                "index" : 2
            },
            "pbrMetallicRoughness" : {
                "baseColorTexture" : {
                    "extensions" : {
                        "KHR_texture_transform" : {
                            "offset" : [
                                0,
                                4
                            ],
                            "scale" : [
                                -3,
                                -3
                            ]
                        }
                    },
                    "index" : 3
                },
                "metallicFactor" : 0,
                "metallicRoughnessTexture" : {
                    "extensions" : {
                        "KHR_texture_transform" : {
                            "offset" : [
                                0,
                                4
                            ],
                            "scale" : [
                                -3,
                                -3
                            ]
                        }
                    },
                    "index" : 4
                }
            }
        },
        {
            "doubleSided" : true,
            "name" : "Material.001",
            "pbrMetallicRoughness" : {
                "baseColorFactor" : [
                    0.800000011920929,
                    0.800000011920929,
                    0.800000011920929,
                    1
                ],
                "metallicFactor" : 0,
                "roughnessFactor" : 0.5
            }
        }
    ],
    "meshes" : [
        {
            "name" : "Cube.001",
            "primitives" : [
                {
                    "attributes" : {
                        "POSITION" : 0,
                        "NORMAL" : 1,
                        "TEXCOORD_0" : 2
                    },
                    "indices" : 3,
                    "material" : 0
                }
            ]
        },
        {
            "name" : "Cube.002",
            "primitives" : [
                {
                    "attributes" : {
                        "POSITION" : 4,
                        "NORMAL" : 5,
                        "TEXCOORD_0" : 6
                    },
                    "indices" : 7,
                    "material" : 1
                }
            ]
        },
        {
            "name" : "Sphere.001",
            "primitives" : [
                {
                    "attributes" : {
                        "POSITION" : 8,
                        "NORMAL" : 9,
                        "TEXCOORD_0" : 10
                    },
                    "indices" : 11,
                    "material" : 2
                }
            ]
        }
    ],
    "textures" : [
        {
            "sampler" : 0,
            "source" : 0
        },
        {
            "sampler" : 0,
            "source" : 1
        },
        {
            "sampler" : 0,
            "source" : 2
        },
        {
            "sampler" : 0,
            "source" : 3
        },
        {
            "sampler" : 0,
            "source" : 4
        }
    ],
    "images" : [
        {
            "mimeType" : "image/jpeg",
            "name" : "Concrete03_NRM_6K",
            "uri" : "Concrete03_NRM_6K.jpg"
        },
        {
            "mimeType" : "image/jpeg",
            "name" : "Concrete03_COL_VAR2_6K",
            "uri" : "Concrete03_COL_VAR2_6K.jpg"
        },
        {
            "mimeType" : "image/jpeg",
            "name" : "ConcretePlates12_NRM_6K",
            "uri" : "ConcretePlates12_NRM_6K.jpg"
        },
        {
            "mimeType" : "image/jpeg",
            "name" : "ConcretePlates12_COL_VAR2_6K",
            "uri" : "ConcretePlates12_COL_VAR2_6K.jpg"
        },
        {
            "mimeType" : "image/png",
            "name" : "ConcretePlates12_GLOSS_6K",
            "uri" : "ConcretePlates12_GLOSS_6K.png"
        }
    ],
    "accessors" : [
        {
            "bufferView" : 0,
            "componentType" : 5126,
            "count" : 48,
            "max" : [
                1.929566740989685,
                1.9295666217803955,
                -1.1449458599090576
            ],
            "min" : [
                -1.929566740989685,
                -1.9295666217803955,
                -11.744701385498047
            ],
            "type" : "VEC3"
        },
        {
            "bufferView" : 1,
            "componentType" : 5126,
            "count" : 48,
            "type" : "VEC3"
        },
        {
            "bufferView" : 2,
            "componentType" : 5126,
            "count" : 48,
            "type" : "VEC2"
        },
        {
            "bufferView" : 3,
            "componentType" : 5123,
            "count" : 84,
            "type" : "SCALAR"
        },
        {
            "bufferView" : 4,
            "componentType" : 5126,
            "count" : 72,
            "max" : [
                10.983863830566406,
                15.070425987243652,
                3.6304759979248047
            ],
            "min" : [
                -10.983863830566406,
                -13.807669639587402,
                -41.515296936035156
            ],
            "type" : "VEC3"
        },
        {
            "bufferView" : 5,
            "componentType" : 5126,
            "count" : 72,
            "type" : "VEC3"
        },
        {
            "bufferView" : 6,
            "componentType" : 5126,
            "count" : 72,
            "type" : "VEC2"
        },
        {
            "bufferView" : 7,
            "componentType" : 5123,
            "count" : 108,
            "type" : "SCALAR"
        },
        {
            "bufferView" : 8,
            "componentType" : 5126,
            "count" : 1100,
            "max" : [
                1,
                0.9999989867210388,
                0.8599839806556702
            ],
            "min" : [
                -0.9999989867210388,
                -0.9999989867210388,
                -1.140015959739685
            ],
            "type" : "VEC3"
        },
        {
            "bufferView" : 9,
            "componentType" : 5126,
            "count" : 1100,
            "type" : "VEC3"
        },
        {
            "bufferView" : 10,
            "componentType" : 5126,
            "count" : 1100,
            "type" : "VEC2"
        },
        {
            "bufferView" : 11,
            "componentType" : 5123,
            "count" : 4032,
            "type" : "SCALAR"
        },
        {
            "bufferView" : 12,
            "componentType" : 5126,
            "count" : 150,
            "max" : [
                6.25
            ],
            "min" : [
                0.041666666666666664
            ],
            "type" : "SCALAR"
        },
        {
            "bufferView" : 13,
            "componentType" : 5126,
            "count" : 150,
            "type" : "VEC3"
        },
        {
            "bufferView" : 14,
            "componentType" : 5126,
            "count" : 150,
            "type" : "VEC4"
        }
    ],
    "bufferViews" : [
        {
            "buffer" : 0,
            "byteLength" : 576,
            "byteOffset" : 0
        },
        {
            "buffer" : 0,
            "byteLength" : 576,
            "byteOffset" : 576
        },
        {
            "buffer" : 0,
            "byteLength" : 384,
            "byteOffset" : 1152
        },
        {
            "buffer" : 0,
            "byteLength" : 168,
            "byteOffset" : 1536
        },
        {
            "buffer" : 0,
            "byteLength" : 864,
            "byteOffset" : 1704
        },
        {
            "buffer" : 0,
            "byteLength" : 864,
            "byteOffset" : 2568
        },
        {
            "buffer" : 0,
            "byteLength" : 576,
            "byteOffset" : 3432
        },
        {
            "buffer" : 0,
            "byteLength" : 216,
            "byteOffset" : 4008
        },
        {
            "buffer" : 0,
            "byteLength" : 13200,
            "byteOffset" : 4224
        },
        {
            "buffer" : 0,
            "byteLength" : 13200,
            "byteOffset" : 17424
        },
        {
            "buffer" : 0,
            "byteLength" : 8800,
            "byteOffset" : 30624
        },
        {
            "buffer" : 0,
            "byteLength" : 8064,
            "byteOffset" : 39424
        },
        {
            "buffer" : 0,
            "byteLength" : 600,
            "byteOffset" : 47488
        },
        {
            "buffer" : 0,
            "byteLength" : 1800,
            "byteOffset" : 48088
        },
        {
            "buffer" : 0,
            "byteLength" : 2400,
            "byteOffset" : 49888
        }
    ],
    "samplers" : [
        {
            "magFilter" : 9729,
            "minFilter" : 9987
        }
    ],
    "buffers" : [
        {
            "byteLength" : 52288,
            "uri" : "\u0421\u0446\u0435\u043d\u0430_ \u043c\u0443\u0437\u0435\u0439_3.bin"
        }
    ]
}
